<svg width="150" height="150" viewBox="0 0 150 150" fill="none" xmlns="http://www.w3.org/2000/svg">
<rect width="60.2482" height="60.0427" transform="matrix(0.924531 -0.381107 0.384264 0.923223 36.4211 58.961)" fill="#D9D9D9"/>
<rect width="60.0426" height="60.2482" transform="matrix(0.384264 -0.923223 0.924531 0.381107 36.4211 91.4328)" fill="#D9D9D9"/>
<rect x="36.5385" y="80" width="10" height="76.9231" transform="rotate(-90 36.5385 80)" fill="#D9D9D9"/>
<path d="M0 74.9636L36.9231 70.0273V79.9L0 74.9636Z" fill="#D9D9D9"/>
<path d="M150 74.9636L113.077 70.0273V79.9L150 74.9636Z" fill="#D9D9D9"/>
<rect x="70" y="36.5385" width="10" height="76.9231" fill="#D9D9D9"/>
<path d="M75.0363 0L79.9727 36.9231H70.1L75.0363 0Z" fill="#D9D9D9"/>
<path d="M75.0364 150L79.9727 113.077H70.1L75.0364 150Z" fill="#D9D9D9"/>
<rect x="51.3391" y="105.732" width="10" height="76.9231" transform="rotate(-135 51.3391 105.732)" fill="#D9D9D9"/>
<path d="M21.9413 128.007L44.5593 98.4082L51.5404 105.389L21.9413 128.007Z" fill="#D9D9D9"/>
<path d="M128.007 21.9413L98.4082 44.5593L105.389 51.5404L128.007 21.9413Z" fill="#D9D9D9"/>
<rect x="44.2681" y="51.3391" width="10" height="76.9231" transform="rotate(-45 44.2681 51.3391)" fill="#D9D9D9"/>
<path d="M21.9927 21.9413L51.5918 44.5593L44.6107 51.5404L21.9927 21.9413Z" fill="#D9D9D9"/>
<path d="M128.059 128.007L105.441 98.4082L98.4596 105.389L128.059 128.007Z" fill="#D9D9D9"/>
</svg>
